<svg xmlns="http://www.w3.org/2000/svg" viewBox="-2 -2 28 28"><defs><filter id="s" x="-30%" y="-30%" width="160%" height="160%"><feDropShadow dx="0" dy="0.5" stdDeviation="0.5" flood-color="#2c4a80" flood-opacity="0.62"/><feDropShadow dx="0" dy="1" stdDeviation="1.4" flood-color="#2c4a80" flood-opacity="0.32"/></filter></defs><g fill="none" stroke="#fff" stroke-width="1.6" stroke-linecap="round" stroke-linejoin="round" filter="url(#s)"><path d="M4 6.5A2.5 2.5 0 0 1 6.5 4h6A2.5 2.5 0 0 1 15 6.5V10a2.5 2.5 0 0 1-2.5 2.5H8.8L6 14.8V12.5A2.5 2.5 0 0 1 4 10z"/><path d="M16.8 8.5h.7A2.5 2.5 0 0 1 20 11v3.5a2.5 2.5 0 0 1-2.5 2.5H17v2.3l-3-2.3h-2.5"/></g></svg>